<?xml version="1.0" standalone="no"?><!DOCTYPE svg PUBLIC "-//W3C//DTD SVG 1.1//EN" "http://www.w3.org/Graphics/SVG/1.1/DTD/svg11.dtd"><svg class="icon" height="512" viewBox="0 0 1024 1024" version="1.1" xmlns="http://www.w3.org/2000/svg"><path d="M924.7872 337.6064a446.4576 446.4576 0 0 0-96.0064-142.3936 446.5728 446.5728 0 0 0-142.3936-96C631.136 75.84 572.4672 64 512 64c-60.4736 0-119.136 11.84-174.3936 35.2128a446.5024 446.5024 0 0 0-142.3936 96 446.6624 446.6624 0 0 0-96.0064 142.3936C75.8464 392.8576 64 451.52 64 512c0 60.4736 11.8464 119.136 35.2064 174.3872a446.7648 446.7648 0 0 0 96.0064 142.4 446.5024 446.5024 0 0 0 142.3936 96C392.8576 948.1408 451.5264 960 512 960c60.4608 0 119.136-11.8592 174.3872-35.2128 53.3568-22.56 101.248-54.8736 142.3936-96 41.1392-41.152 73.4464-89.0496 96.0064-142.4C948.1472 631.136 960 572.4736 960 512s-11.8528-119.1424-35.2128-174.3936z m-42.5344 330.7904a399.8784 399.8784 0 0 1-84.6464 126.208c-29.8048-101.2096-113.2672-179.8656-217.9584-203.904 57.5616-25.5424 97.664-82.6816 97.664-149.0752 0-90.1888-74.0096-163.3152-165.312-163.3152-91.296 0-165.3248 73.1264-165.3248 163.3152 0 66.3936 40.1024 123.5328 97.6704 149.0752-104.6848 24.0512-188.1472 102.6944-217.9648 203.9168a400.4928 400.4928 0 0 1-84.64-126.2208c-20.9344-49.5168-31.5584-102.1376-31.5584-156.4032 0-54.2592 10.6176-106.8672 31.5584-156.3968a400.704 400.704 0 0 1 86.1312-127.7312 400.5888 400.5888 0 0 1 127.7376-86.1184c49.5168-20.9408 102.1312-31.5712 156.3904-31.5712 54.2528 0 106.8672 10.6176 156.4032 31.5648a400.5888 400.5888 0 0 1 127.7248 86.1248 400.48 400.48 0 0 1 86.1248 127.7312c20.9408 49.5232 31.5776 102.1376 31.5776 156.3968-0.0128 54.2656-10.6368 106.88-31.5776 156.4032z" /></svg>